name C:\Users\Nicos\Documents\OpenSimProjects\Pred_Sim_Sprinting\Pred_Sim_Sprinting\MainFunctions\ExperimentalData\IK_Splined\Splined_50_meshInts_p02_maxVel_01.mot
datacolumns 38
datarows 13
range 0.11374651 0.12746080
endheader
                time	/jointset/ground_pelvis/pelvis_tilt/value	/jointset/ground_pelvis/pelvis_list/value	/jointset/ground_pelvis/pelvis_rotation/value	/jointset/ground_pelvis/pelvis_tx/value	/jointset/ground_pelvis/pelvis_ty/value	/jointset/ground_pelvis/pelvis_tz/value	/jointset/hip_r/hip_flexion_r/value	/jointset/hip_r/hip_adduction_r/value	/jointset/hip_r/hip_rotation_r/value	/jointset/knee_r/knee_angle_r/value	/jointset/ankle_r/ankle_angle_r/value	/jointset/subtalar_r/subtalar_angle_r/value	/jointset/mtp_r/mtp_angle_r/value	/jointset/hip_l/hip_flexion_l/value	/jointset/hip_l/hip_adduction_l/value	/jointset/hip_l/hip_rotation_l/value	/jointset/knee_l/knee_angle_l/value	/jointset/ankle_l/ankle_angle_l/value	/jointset/subtalar_l/subtalar_angle_l/value	/jointset/mtp_l/mtp_angle_l/value	/jointset/back/lumbar_extension/value	/jointset/back/lumbar_bending/value	/jointset/back/lumbar_rotation/value	/jointset/acromial_r/arm_flex_r/value	/jointset/acromial_r/arm_add_r/value	/jointset/acromial_r/arm_rot_r/value	/jointset/elbow_r/elbow_flex_r/value	/jointset/radioulnar_r/pro_sup_r/value	/jointset/radius_hand_r/wrist_flex_r/value	/jointset/radius_hand_r/wrist_dev_r/value	/jointset/acromial_l/arm_flex_l/value	/jointset/acromial_l/arm_add_l/value	/jointset/acromial_l/arm_rot_l/value	/jointset/elbow_l/elbow_flex_l/value	/jointset/radioulnar_l/pro_sup_l/value	/jointset/radius_hand_l/wrist_flex_l/value	/jointset/radius_hand_l/wrist_dev_l/value	
          0.11374651	          4.23065972	          3.75549231	        -18.50688979	         -1.30099880	          0.96752327	          0.32097284	         -0.20578081	         -6.80290968	          7.71500025	        -38.06830391	         18.45324466	        -11.05514948	          4.05829059	         60.99671251	        -13.26932059	        -19.06043566	       -135.27354361	         -4.51265058	        -12.05535706	         10.60212759	        -16.56276688	         -9.35130740	          7.21381264	         28.73725117	         -3.42103778	         21.47637252	        111.40644136	         65.05267419	        -13.44352329	         13.44158192	        -58.07687289	         -7.96292519	        -26.50627793	         46.45956978	         81.09840909	          1.67601014	         21.23815788	
          0.11533714	          3.95702493	          3.92961304	        -18.58794317	         -1.28491798	          0.96710215	          0.32144582	         -1.00783678	         -7.07440356	          7.98359673	        -37.72311321	         17.36323221	        -11.85000345	          4.88066140	         62.29660903	        -13.21842685	        -18.58638562	       -134.45229393	         -4.19586155	        -11.47336799	         10.54088484	        -15.90376674	         -9.59968427	          7.66691774	         29.52869497	         -3.30192719	         21.64295491	        112.00233936	         65.09186293	        -13.49082898	         13.54878716	        -59.19051664	         -7.82264681	        -27.28876553	         46.97370966	         80.94557895	          1.86294490	         21.31911693	
          0.11542857	          3.94135670	          3.93973049	        -18.59043210	         -1.28399112	          0.96707957	          0.32147126	         -1.05520948	         -7.08997729	          7.99705031	        -37.70141530	         17.29676711	        -11.89646967	          4.92774874	         62.37072400	        -13.21337267	        -18.55818111	       -134.40389384	         -4.17800441	        -11.43936709	         10.53780330	        -15.86604027	         -9.61368259	          7.69093167	         29.57377860	         -3.29604667	         21.65400853	        112.03704623	         65.09384348	        -13.49367050	         13.55490072	        -59.25467175	         -7.81443348	        -27.33420896	         47.00431959	         80.93588753	          1.87379599	         21.32376572	
          0.11612320	          3.82258156	          4.01707137	        -18.60149293	         -1.27694009	          0.96691361	          0.32165781	         -1.41962492	         -7.20826158	          8.09180734	        -37.53007200	         16.77836052	        -12.25183335	          5.28436808	         62.93156874	        -13.16715807	        -18.34084356	       -134.03197888	         -4.04375231	        -11.17965556	         10.51600814	        -15.58003784	         -9.71916272	          7.86587544	         29.91496170	         -3.25480311	         21.74340765	        112.30232045	         65.10786721	        -13.51573911	         13.60112902	        -59.74253359	         -7.75141721	        -27.68101305	         47.24045893	         80.85905936	          1.95657100	         21.35907575	
          0.11831794	          3.45039242	          4.26818544	        -18.54455391	         -1.25455395	          0.96645116	          0.32216222	         -2.62133931	         -7.58242080	          8.30015297	        -36.91582804	         14.98576797	        -13.39488323	          6.39198745	         64.67644209	        -12.92814967	        -17.62430933	       -132.80876486	         -3.63834474	        -10.35159168	         10.46582930	        -14.68397425	        -10.04401901	          8.32904317	         30.97860476	         -3.16417370	         22.08940568	        113.15878898	         65.13915623	        -13.59168224	         13.74406211	        -61.28761419	         -7.54416484	        -28.79298694	         48.02490332	         80.57934136	          2.22149049	         21.47065199	
          0.11990857	          3.18311811	          4.45836392	        -18.41596026	         -1.23822663	          0.96616968	          0.32243700	         -3.53596886	         -7.85506064	          8.35940472	        -36.40588534	         13.54183553	        -14.23222448	          7.16853516	         65.91394427	        -12.66453586	        -17.08516870	       -131.87737094	         -3.36554687	         -9.75708808	         10.44639958	        -14.04162980	        -10.27392121	          8.57743460	         31.73728579	         -3.13570953	         22.40002143	        113.79686619	         65.14764624	        -13.65351733	         13.84392556	        -62.40830663	         -7.38494242	        -29.61164278	         48.62470701	         80.34163868	          2.41609317	         21.55170194	
          0.12000000	          3.16780729	          4.46954361	        -18.40633785	         -1.23728549	          0.96615476	          0.32245026	         -3.58956542	         -7.87079264	          8.36035159	        -36.37501840	         13.45518736	        -14.28035397	          7.21232563	         65.98435538	        -12.64702976	        -17.05386089	       -131.82270645	         -3.35047387	         -9.72334214	         10.44569664	        -14.00488503	        -10.28704881	          8.58943514	         31.78061458	         -3.13501363	         22.41939203	        113.83398545	         65.14773129	        -13.65726489	         13.84955389	        -62.47268966	         -7.37553194	        -29.65896613	         48.65986850	         80.32708488	          2.42733200	         21.55636927	
          0.12069463	          3.05163211	          4.55544015	        -18.32533693	         -1.23012583	          0.96604561	          0.32254148	         -4.00016965	         -7.99056854	          8.35860800	        -36.13522158	         12.78403728	        -14.64551533	          7.54163020	         66.51669456	        -12.50561351	        -16.81527119	       -131.40342393	         -3.23825888	         -9.46907097	         10.44176191	        -13.72632591	        -10.38658884	          8.67246178	         32.10887214	         -3.13303415	         22.57187809	        114.11757570	         65.14685609	        -13.68646401	         13.89188571	        -62.96158898	         -7.30306717	        -30.01931911	         48.92918795	         80.21336116	          2.51288049	         21.59186802	
          0.12288937	          2.68528440	          4.83874978	        -17.97922436	         -1.20739719	          0.96574561	          0.32271477	         -5.33235667	         -8.37186703	          8.24812417	        -35.32060901	         10.51719204	        -15.78599014	          8.53655868	         68.16792772	        -11.96195735	        -16.05845472	       -130.03305135	         -2.91226350	         -8.69847958	         10.44378146	        -12.85255162	        -10.70018680	          8.84089815	         33.13574845	         -3.16442566	         23.11280079	        115.03218525	         65.12500392	        -13.78765911	         14.02031812	        -64.50121380	         -7.06254201	        -31.16501744	         49.80159442	         79.81784270	          2.78473262	         21.70457870	
          0.12448000	          2.41901314	          5.05648612	        -17.64491789	         -1.19082603	          0.96556506	          0.32272417	         -6.32422744	         -8.65080897	          8.06673347	        -34.68248218	          8.73949266	        -16.58929990	          9.20563154	         69.33483973	        -11.47727493	        -15.51495872	       -128.99726597	         -2.70570728	         -8.18290612	         10.45627812	        -12.22430095	        -10.92856594	          8.87488544	         33.87099144	         -3.22181866	         23.55719945	        115.71307176	         65.08902366	        -13.87018997	         14.10787814	        -65.60908816	         -6.87679484	        -31.99881003	         50.44875369	         79.49739958	          2.98277244	         21.78692870	
          0.12457143	          2.40365600	          5.06933930	        -17.62362304	         -1.18987108	          0.96555550	          0.32272160	         -6.38176228	         -8.66690212	          8.05369424	        -34.64472688	          8.63396676	        -16.63464765	          9.24256172	         69.40113855	        -11.44713624	        -15.48401363	       -128.93665623	         -2.69464743	         -8.15461990	         10.45721574	        -12.18829518	        -10.94176198	          8.87461938	         33.91304019	         -3.22597667	         23.58399382	        115.75267800	         65.08639853	        -13.87518331	         14.11276023	        -65.67249553	         -6.86581807	        -32.04675051	         50.48621229	         79.47813229	          2.99417140	         21.79168185	
          0.12526606	          2.28671688	          5.16818930	        -17.45463407	         -1.18260752	          0.96548550	          0.32269091	         -6.82037245	         -8.78931115	          7.94544841	        -34.35441676	          7.82069002	        -16.97577191	          9.51719583	         69.90207004	        -11.21025621	        -15.25023853	       -128.47239400	         -2.61358151	         -7.94495556	         10.46494049	        -11.91507373	        -11.04231741	          8.86487341	         34.23177863	         -3.26054276	         23.79176628	        116.05527425	         65.06441294	        -13.91402749	         14.14930291	        -66.15310820	         -6.78136076	        -32.41086332	         50.77148583	         79.32879651	          3.08080709	         21.82786494	
          0.12746080	          1.91299729	          5.49419083	        -16.83999707	         -1.15956592	          0.96529155	          0.32246309	         -8.21798754	         -9.17642392	          7.49893886	        -33.40231739	          5.12236605	        -18.00731401	         10.30796072	         71.45228459	        -10.37335678	        -14.53081198	       -126.96205948	         -2.39273466	         -7.34948149	         10.49355174	        -11.05506327	        -11.36412023	          8.74706366	         35.23078869	         -3.40314458	         24.49335788	        117.03129008	         64.97044997	        -14.04755966	         14.25822792	        -67.65627758	         -6.50234819	        -33.55752465	         51.67731693	         78.82365966	          3.35456341	         21.94300395	
